PathFileType	4	(X/Y/Z)	/Users/itak/Documents/Research/Walk-IL/dataset/trc/00491_00167.trc
DataRate	CameraRate	NumFrames	NumMarkers	Units	OrigDataRate	OrigDataStartFrame	OrigNumFrames
100.000000	100.000000	4	53	mm	100.000000	414	552
Frame#	Time	RPSI			LPSI			L3			STRN			T10			C7			CLAV			RBAK			LBAK			LSHO			LUPA			LAEL			LAOL			LWTS			LWPS			LFRA			LIFD			LHPS			LHTS			RSHO			RUPA			RAEL			RAOL			RWTS			RWPS			RFRA			RIFD			RHTS			RHPS			RBHD			LFHD			RFHD			LBHD			LHIP			RHIP			RASI			LASI			LKNE			LTHI			LANK			LTIP			LTOE			LMT1			LMT5			LHEE			RKNE			RTHI			RANK			RTIP			RTOE			RMT1			RMT5			RHEE			
		X1	Y1	Z1	X2	Y2	Z2	X3	Y3	Z3	X4	Y4	Z4	X5	Y5	Z5	X6	Y6	Z6	X7	Y7	Z7	X8	Y8	Z8	X9	Y9	Z9	X10	Y10	Z10	X11	Y11	Z11	X12	Y12	Z12	X13	Y13	Z13	X14	Y14	Z14	X15	Y15	Z15	X16	Y16	Z16	X17	Y17	Z17	X18	Y18	Z18	X19	Y19	Z19	X20	Y20	Z20	X21	Y21	Z21	X22	Y22	Z22	X23	Y23	Z23	X24	Y24	Z24	X25	Y25	Z25	X26	Y26	Z26	X27	Y27	Z27	X28	Y28	Z28	X29	Y29	Z29	X30	Y30	Z30	X31	Y31	Z31	X32	Y32	Z32	X33	Y33	Z33	X34	Y34	Z34	X35	Y35	Z35	X36	Y36	Z36	X37	Y37	Z37	X38	Y38	Z38	X39	Y39	Z39	X40	Y40	Z40	X41	Y41	Z41	X42	Y42	Z42	X43	Y43	Z43	X44	Y44	Z44	X45	Y45	Z45	X46	Y46	Z46	X47	Y47	Z47	X48	Y48	Z48	X49	Y49	Z49	X50	Y50	Z50	X51	Y51	Z51	X52	Y52	Z52	X53	Y53	Z53	

415	4.14	416.9188232421875	936.2261352539062	-113.1365280151367	273.4131774902344	933.2529296875	-114.1363372802734	363.9266967773438	1042.035766601562	-133.0856323242188	357.9172668457031	1223.817504882812	-413.2838745117188	365.0066833496094	1166.020751953125	-124.5251922607422	389.7566528320312	1430.440551757812	-203.1242065429688	362.1875915527344	1338.179321289062	-381.7932739257812	481.0093383789062	1306.711791992188	-140.6848449707031	289.9737548828125	1391.012329101562	-164.4043273925781	206.9476776123047	1412.849487304688	-265.0096130371094	100.3985061645508	1306.3896484375	-237.1229858398438	42.68576431274414	1098.56005859375	-218.5686340332031	120.5052947998047	1086.647338867188	-150.5730743408203	49.99448776245117	875.4256591796875	-255.8045806884766	-5.675397396087646	880.8322143554688	-204.7904510498047	18.03296661376953	1011.668334960938	-219.3533782958984	36.77919769287109	718.9188842773438	-204.8198394775391	-7.39041805267334	802.4461669921875	-186.1088562011719	34.43411636352539	786.754150390625	-242.9611663818359	541.8970947265625	1385.7841796875	-277.442138671875	617.07568359375	1327.054077148438	-261.8739929199219	698.0206909179688	1049.898193359375	-267.4132690429688	661.9297485351562	1026.1142578125	-215.3760070800781	660.3694458007812	852.6614990234375	-385.2212524414062	723.8230590820312	836.0465698242188	-326.535888671875	711.8897705078125	992.8154907226562	-276.7738952636719	675.92626953125	699.7030029296875	-406.9693908691406	677.0980224609375	760.5966796875	-414.1913146972656	723.7461547851562	750.329345703125	-353.3162536621094	475.6993103027344	1624.044677734375	-318.7040100097656	294.17431640625	1631.001220703125	-417.475341796875	421.5115966796875	1631.55322265625	-445.2269287109375	306.63916015625	1628.550048828125	-264.2109375	155.1109771728516	836.6611938476562	-256.0925598144531	554.5584106445312	838.8717041015625	-240.9372253417969	487.8892517089844	884.9373168945312	-337.6914672851562	233.9041900634766	877.7077026367188	-349.8573303222656	140.1030883789062	431.12939453125	-341.6424865722656	137.0527038574219	584.2245483398438	-352.5166625976562	116.6870269775391	213.3379974365234	30.64818954467773	115.3695373535156	331.134521484375	-217.5228271484375	211.6359405517578	38.02822875976562	-103.4241333007812	228.63134765625	107.2835922241211	-62.92439651489258	120.2211685180664	91.32286834716797	-61.49763870239258	178.255615234375	256.1373291015625	52.39020156860352	526.3533325195312	463.5042724609375	-364.9853210449219	565.6412963867188	716.3795166015625	-311.2390441894531	520.0716552734375	37.44979476928711	-294.0489807128906	533.5890502929688	316.9624938964844	-367.1743469238281	482.1021118164062	42.02511596679688	-517.0069580078125	445.4813232421875	51.23069000244141	-452.7610778808594	553.6906127929688	38.76068878173828	-424.2188720703125	471.6369323730469	33.81027603149414	-232.3857269287109	
416	4.15	419.6062622070312	936.8811645507812	-117.8274765014648	276.0667114257812	934.2243041992188	-118.4812393188477	367.4767761230469	1042.940795898438	-137.2790069580078	359.1543579101562	1224.9697265625	-418.0677795410156	369.2345275878906	1167.1220703125	-129.4205627441406	393.5271911621094	1431.508178710938	-208.3786773681641	363.6868896484375	1339.2841796875	-386.564453125	485.48876953125	1307.8701171875	-146.8046569824219	294.2335205078125	1392.174926757812	-168.1835784912109	209.8977813720703	1413.806518554688	-267.6716003417969	104.2314453125	1306.808349609375	-238.2626953125	47.08008193969727	1098.743408203125	-220.2782592773438	125.7912979125977	1086.2587890625	-153.4507751464844	55.90727615356445	876.134765625	-261.1441345214844	-0.02432403713464737	880.99462890625	-209.9218292236328	22.86402130126953	1011.668518066406	-222.180908203125	42.18804931640625	719.079833984375	-214.0132446289062	-1.453218698501587	802.1859130859375	-192.7845153808594	39.45995712280273	787.8232421875	-250.6925811767578	544.7066650390625	1386.62255859375	-284.5947570800781	620.0460815429688	1327.785888671875	-270.1997375488281	701.197021484375	1051.030151367188	-277.578125	665.74365234375	1027.107543945312	-225.0865631103516	663.4336547851562	853.3202514648438	-394.4634704589844	727.5791015625	837.3043212890625	-336.3055114746094	715.203857421875	994.0050659179688	-286.9566040039062	680.22607421875	700.4351806640625	-416.025634765625	680.774658203125	761.3504028320312	-423.4135437011719	728.0785522460938	751.6236572265625	-362.9219665527344	479.0233154296875	1624.5927734375	-324.2857666015625	297.0961303710938	1632.49365234375	-422.2614440917969	424.3576354980469	1632.393920898438	-450.5959167480469	310.1907958984375	1629.929443359375	-269.1564025878906	156.8290405273438	838.8073120117188	-261.5730285644531	556.650146484375	839.0014038085938	-245.7299652099609	490.381591796875	885.37744140625	-342.48779296875	236.6508026123047	879.4609375	-353.8298950195312	140.4674224853516	434.7880859375	-353.4431762695312	137.2562103271484	588.2312622070312	-362.2871398925781	125.903190612793	215.3170776367188	17.40662956237793	118.7990341186523	333.8580627441406	-229.3414916992188	210.5880432128906	39.56240081787109	-123.7696838378906	231.5027618408203	107.1626739501953	-81.83858489990234	122.2345199584961	96.49771118164062	-79.18875122070312	189.5712127685547	255.1536560058594	38.98405075073242	527.2443237304688	463.1223449707031	-367.2400512695312	567.1821899414062	716.3204345703125	-315.5590209960938	519.9634399414062	37.69146347045898	-294.1227111816406	534.0408325195312	316.567138671875	-368.5852355957031	482.1773376464844	41.85339736938477	-517.2024536132812	445.4832763671875	51.1681022644043	-452.8997802734375	553.6672973632812	38.7817268371582	-424.2467041015625	471.3684692382812	34.03812408447266	-232.5345611572266	
417	4.16	422.0417175292969	937.5740356445312	-122.3993453979492	278.4683532714844	935.3006591796875	-122.7724304199219	370.8299560546875	1043.87109375	-141.4776611328125	360.3609924316406	1226.1904296875	-422.6731567382812	373.3234252929688	1168.226684570312	-134.1203308105469	397.1141357421875	1432.58447265625	-213.4301300048828	365.08447265625	1340.445922851562	-391.1236877441406	489.8022155761719	1309.045166015625	-152.7607879638672	298.3241577148438	1393.326538085938	-171.8212585449219	212.7323150634766	1414.772827148438	-270.2147216796875	107.9793167114258	1307.18994140625	-239.4447479248047	51.56273651123047	1098.82666015625	-222.1683959960938	131.1401062011719	1085.806518554688	-156.4992828369141	61.83770751953125	876.8328247070312	-266.8048095703125	5.712201118469238	881.2042236328125	-215.2575988769531	27.80452537536621	1011.595825195312	-225.2126922607422	47.03946685791016	719.34326171875	-223.8797302246094	4.281719207763672	802.0645751953125	-199.8716278076172	44.19114685058594	789.0708618164062	-258.8682556152344	547.3422241210938	1387.601318359375	-291.4725952148438	622.832275390625	1328.670043945312	-278.2384033203125	704.0964965820312	1052.287841796875	-287.5362548828125	669.1829223632812	1028.214477539062	-234.6709747314453	666.407958984375	854.087890625	-403.6036682128906	731.1267700195312	838.6995849609375	-345.8605041503906	718.2498168945312	995.3284301757812	-296.9325256347656	684.5114135742188	701.2378540039062	-424.8526916503906	684.42578125	762.1758422851562	-432.4465026855469	732.2713623046875	753.057861328125	-372.2665405273438	482.0646362304688	1625.192260742188	-329.7145385742188	299.74560546875	1633.9150390625	-426.8958740234375	426.9141235351562	1633.219970703125	-455.7990112304688	313.453125	1631.312622070312	-273.9427490234375	158.4048004150391	840.9964599609375	-266.8711547851562	558.51220703125	839.1040649414062	-250.2655181884766	492.7642211914062	885.8116455078125	-347.0960083007812	239.3306884765625	881.2332763671875	-357.7220458984375	140.8066558837891	438.4366760253906	-364.7388916015625	137.4836120605469	592.3037109375	-371.7601928710938	134.9059906005859	215.9848937988281	3.783137559890747	122.1425704956055	336.1950378417969	-241.0082550048828	210.2702331542969	41.01137542724609	-144.2978210449219	234.7125854492188	106.767578125	-100.8764343261719	124.8118438720703	100.6375045776367	-96.97409820556641	200.3570709228516	253.1338043212891	25.15553283691406	528.03515625	462.7763977050781	-369.3272705078125	568.5182495117188	716.24365234375	-319.6074523925781	519.852294921875	37.92689895629883	-294.1998596191406	534.42578125	316.2286376953125	-369.9120788574219	482.2402038574219	41.68671035766602	-517.3953857421875	445.4766235351562	51.09827423095703	-453.0398864746094	553.6386108398438	38.80338287353516	-424.2747497558594	471.0741577148438	34.26217651367188	-232.6971282958984	
418	4.17	424.2573547363281	938.3164672851562	-126.8563385009766	280.6490783691406	936.4553833007812	-127.0017776489258	373.9870910644531	1044.809326171875	-145.6959075927734	361.5385131835938	1227.468139648438	-427.1099243164062	377.2566528320312	1169.319946289062	-138.6369323730469	400.5262145996094	1433.6572265625	-218.2725830078125	366.397705078125	1341.659057617188	-395.4877014160156	493.9445495605469	1310.210693359375	-158.5655059814453	302.2462158203125	1394.461303710938	-175.3320922851562	215.4573059082031	1415.75244140625	-272.6672668457031	111.6153564453125	1307.566040039062	-240.7137451171875	56.09704208374023	1098.836059570312	-224.2499542236328	136.4981079101562	1085.341064453125	-159.7048645019531	67.73632049560547	877.6143188476562	-272.8215637207031	11.55557918548584	881.4495239257812	-220.7777709960938	32.82733917236328	1011.475830078125	-228.4651641845703	51.43390655517578	719.7647094726562	-234.3197784423828	9.83527660369873	802.0933837890625	-207.3448333740234	48.72136306762695	790.5101318359375	-267.4120178222656	549.814208984375	1388.703979492188	-298.0710754394531	625.447998046875	1329.702270507812	-285.9814453125	706.7453002929688	1053.65771484375	-297.2403869628906	672.2789916992188	1029.421875	-244.0841979980469	669.2814331054688	854.9869384765625	-412.6451721191406	734.4446411132812	840.22216796875	-355.2054443359375	721.0471801757812	996.7701416015625	-306.667724609375	688.7139892578125	702.1377563476562	-433.4861450195312	688.0093994140625	763.0953979492188	-441.3150939941406	736.2710571289062	754.61962890625	-381.3753356933594	484.8220825195312	1625.8525390625	-334.98583984375	302.12548828125	1635.251953125	-431.3707885742188	429.1704711914062	1634.031494140625	-460.828125	316.4329528808594	1632.684692382812	-278.5632934570312	159.8798522949219	843.181396484375	-271.9087219238281	560.1856079101562	839.2235717773438	-254.5554656982422	495.0027465820312	886.2482299804688	-351.5400390625	241.8877716064453	883.015380859375	-361.56005859375	141.1447143554688	442.0324096679688	-375.5450134277344	137.7480010986328	596.3801879882812	-380.8567504882812	143.5273284912109	215.33349609375	-10.17234706878662	125.3418426513672	338.1400451660156	-252.5281372070312	210.7951202392578	42.37116241455078	-164.9612274169922	238.2814483642578	106.1616592407227	-120.0108108520508	127.957649230957	103.6136779785156	-114.7353744506836	210.4185180664062	250.1852874755859	10.94473648071289	528.743896484375	462.4788513183594	-371.2142028808594	569.6673583984375	716.1701049804688	-323.3966369628906	519.730224609375	38.156982421875	-294.27978515625	534.7594604492188	315.9498596191406	-371.123779296875	482.2881164550781	41.52679061889648	-517.5848999023438	445.4634094238281	51.03014373779297	-453.1806335449219	553.60693359375	38.82521057128906	-424.3014526367188	470.7666625976562	34.49371337890625	-232.8694763183594	
